<svg viewBox="0 0 120 96" xmlns="http://www.w3.org/2000/svg">
<path fill-rule="evenodd" clip-rule="evenodd" d="M66.6049 7.33708C68.6284 8.22342 69.5503 10.5823 68.6639 12.6059L42.1639 73.1059C41.655 74.2678 40.6251 75.1194 39.3883 75.4011C38.1515 75.6828 36.8544 75.3612 35.8925 74.5343L7.39247 50.0343C6.45005 49.2241 5.93773 48.022 6.00606 46.7811C6.07439 45.5402 6.71561 44.4016 7.74128 43.6998L36.2413 24.1998C38.0645 22.9523 40.5538 23.4191 41.8012 25.2423C43.0487 27.0655 42.582 29.5548 40.7587 30.8022L16.556 47.362L37.0061 64.9419L61.3361 9.39615C62.2224 7.37261 64.5813 6.45073 66.6049 7.33708ZM80.6117 19.6009C81.8485 19.3192 83.1456 19.6408 84.1076 20.4677L112.608 44.9677C113.55 45.7779 114.062 46.98 113.994 48.2209C113.926 49.4618 113.284 50.6005 112.259 51.3022L83.7587 70.8022C81.9355 72.0497 79.4462 71.583 78.1988 69.7597C76.9513 67.9365 77.4181 65.4472 79.2413 64.1998L103.444 47.64L82.9939 30.0601L58.6639 85.6059C57.7776 87.6294 55.4187 88.5513 53.3951 87.6649C51.3716 86.7786 50.4497 84.4197 51.3361 82.3961L77.8361 21.8961C78.345 20.7342 79.3749 19.8826 80.6117 19.6009Z" fill="currentColor"/>
</svg>
